<?xml version="1.0" encoding="UTF-8"?>
<svg id="a" data-name="Artwork" xmlns="http://www.w3.org/2000/svg" viewBox="0 0 1442.70000000000073 1250">
  <defs>
    <style>
      .b {
        fill: #002070;
        stroke-width: 0px;
      }
    </style>
  </defs>
  <path class="b" d="m1317.70398988201123,424.92688180541973c0,148.41017330986051-100.23516392311103,261.07543031045043-247.86672726914185,261.07543031045043-20.20038337647929,0-41.17937671678919-.7825622986802-61.383712428129-6.22097504102021,38.85145149498931,40.40867142265051,59.83044483531012,94.01814121694042,59.83044483531012,151.51670849557013,0,175.6022370214796-169.38916665020042,293.70195442957993-403.26462857935985,293.70195442957993-289.04610398592013,0-540.01936644069065-80.02687587693981-540.01936644069065-317.01282532657024,0-167.83194672255922,169.38916665018951-261.85008793945963,356.64683912021974-284.37839653774972-125.87791237673991-27.19996838133011-191.14281761952952-92.46882595894022-191.14281761952952-181.82321206251981,0-129.75910519140052,162.39353398019011-216.78556607316023,341.10230618736932-216.78556607316023,118.88227970676962,0,231.54753670730133,59.05578720628,231.54753670730133,170.94243424303022,0,72.2605379127599-51.28154457246092,134.42286030473952-146.85295338219112,134.42286030473952-65.2688575776192,0-141.41454063988022-33.4130387526493-141.41454063988022-111.11594174260972,0-58.27322490761981,43.51125427349052-94.79279884591961,92.46487362410062-94.79279884591961,34.96235401063041,0,56.71995731478,15.5405805979899,56.71995731478,44.2898642372993,0,36.5195739382807-50.50688694347082,55.16668972197022-50.50688694347082,90.91160603127082,0,27.97462601028928,20.20433571133071,45.8391794952895,51.2854969072996,45.8391794952895,66.82212517041989,0,108.00150188725092-41.95798668065981,108.00150188725092-108.77615951625012,0-76.14568306227011-71.48588028378981-131.31632511905991-169.38521431533991-131.31632511905991-107.22684425825992,0-175.60618935636012,67.60073513427051-175.60618935636012,173.27431179967971,0,108.00150188727002,57.4985672786006,178.70877220717011,146.85690571704072,178.70877220717011,54.38807975808959,0,92.4609212892301-43.50730193857999,195.02796276897061-43.50730193857999,114.21852459341972,0,146.8529533822184,46.6138371242705,278.16532616644872,46.6138371242705,97.9032863663906,0,163.17214394402981-63.7116376499398,163.17214394402981-153.84068138252042,0-76.14963539713972-52.06015453626969-132.09493508289961-121.21415726337909-145.30363812424002,41.18332905161878,27.97462601032021,61.38371242808898,64.49024761377041,61.38371242808898,113.43991462958002,0,65.26885757761011-51.28154457243909,112.66525700056991-124.32069244907871,112.66525700056991-70.7072703199301,0-124.32069244902959-52.0522498666196-124.32069244902959-121.2102049285495,0-78.47756061895052,60.60905479910798-128.20583759857982,156.18046360886001-128.20583759857982,117.3250597790684,0,198.91310791850992,90.91160603126991,198.91310791850992,226.88773392882922Zm-277.39066853745135,407.92838369265064c0-124.32464478389011-87.02646088173969-201.24498547517032-223.00258877931083-201.24498547517032-126.6525700057291,0-203.57291069699932,66.81817283561031-203.57291069699932,163.16819160920022,0,84.69853565995982,56.71995731478091,142.1891982688694,142.96780823272093,153.84858605219961-48.9536193506101-24.86809082466971-72.26053791278082-62.16232239191959-72.26053791278082-115.7717921862295,0-69.1579550619299,57.49856727861061-120.43554729957032,134.41890796989992-120.43554729957032,73.03914787662143,0,126.65257000575002,52.83481216529981,126.65257000575002,124.3167401142,0,81.58409580465013-67.60073513431053,134.42681263960003-157.72977886690023,134.42681263960003-146.8569057170389,0-220.67071122263951-97.90723870126021-220.67071122263951-238.54712171215033,0-76.9203406912693,28.7492836392903-145.29573345452991,81.5840958045801-191.91747524851962-146.07434341837052,17.8724581546503-240.87109459915064,114.99713455725032-240.87109459915064,266.51384305279953,0,162.39353398020012,102.56704147978053,285.15700650157032,296.03778432112995,285.15700650157032,188.81489239766051,0,336.44645574370043-105.67357666540011,336.44645574370043-259.51425804792962Z"/>
</svg>